<?xml version="1.0" standalone="no"?><!DOCTYPE svg PUBLIC "-//W3C//DTD SVG 1.1//EN" "http://www.w3.org/Graphics/SVG/1.1/DTD/svg11.dtd"><svg t="1532481027567" class="icon" style="" viewBox="0 0 1212 1024" version="1.1" xmlns="http://www.w3.org/2000/svg" p-id="789" xmlns:xlink="http://www.w3.org/1999/xlink" width="236.71875" height="200"><defs><style type="text/css"></style></defs><path d="M174.039526 32.379447l455.335968 82.972332v888.411067H174.039526c-82.972332 0-151.778656-58.687747-151.778656-135.588933v-728.537549c0-72.853755 70.83004-121.422925 151.778656-107.256917z" fill="#FDDFDF" p-id="790"></path><path d="M649.612648 1024H174.039526c-95.114625 0-172.01581-68.806324-172.015811-155.826087v-728.537549c0-36.426877 16.189723-70.83004 44.52174-95.114625C80.948617 16.189723 127.494071 4.047431 176.063241 12.142292l473.549407 87.019763v924.837945zM145.70751 50.592885c-28.332016 0-54.640316 8.094862-72.853755 24.284585-20.237154 16.189723-30.355731 38.450593-30.355731 64.758894v728.537549c0 64.758893 56.664032 115.351779 131.541502 115.351779h435.098814v-849.960475l-439.146245-80.948616c-8.094862-2.023715-16.189723-2.023715-24.284585-2.023716z" fill="#EE9B9B" p-id="791"></path><path d="M1056.379447 4.047431l-465.454546 82.972332v934.956522h467.478261c82.972332 0 153.802372-62.735178 153.802372-141.660079V115.351779c-2.023715-78.924901-72.853755-129.517787-155.826087-111.304348z" fill="#FDDFDF" p-id="792"></path><path d="M1019.952569 356.173913l-350.102767 26.3083c-16.189723 0-26.3083 10.118577-26.3083 26.308301s10.118577 26.3083 26.3083 26.3083l350.102767-26.3083c16.189723 0 26.3083-10.118577 26.308301-26.308301 2.023715-12.142292-10.118577-26.3083-26.308301-26.3083z m0 269.15415l-350.102767 26.308301c-16.189723 0-26.3083 10.118577-26.3083 26.3083s10.118577 26.3083 26.3083 26.3083l350.102767-26.3083c16.189723 0 26.3083-10.118577 26.308301-26.3083 2.023715-12.142292-10.118577-26.3083-26.308301-26.308301z" fill="#EE9B9B" p-id="793"></path></svg>